<?xml version="1.0" encoding="UTF-8" standalone="no"?>
<!-- Created with Inkscape (http://www.inkscape.org/) -->

<svg
   xmlns:dc="http://purl.org/dc/elements/1.1/"
   xmlns:cc="http://creativecommons.org/ns#"
   xmlns:rdf="http://www.w3.org/1999/02/22-rdf-syntax-ns#"
   xmlns:svg="http://www.w3.org/2000/svg"
   xmlns="http://www.w3.org/2000/svg"
   xmlns:sodipodi="http://sodipodi.sourceforge.net/DTD/sodipodi-0.dtd"
   xmlns:inkscape="http://www.inkscape.org/namespaces/inkscape"
   id="svg3106"
   version="1.1"
   inkscape:version="0.48.5 r10040"
   width="332.14883"
   height="83.129204"
   sodipodi:docname="train.gif">
  <metadata
     id="metadata3112">
    <rdf:RDF>
      <cc:Work
         rdf:about="">
        <dc:format>image/svg+xml</dc:format>
        <dc:type
           rdf:resource="http://purl.org/dc/dcmitype/StillImage" />
        <dc:title></dc:title>
      </cc:Work>
    </rdf:RDF>
  </metadata>
  <defs
     id="defs3110" />
  <sodipodi:namedview
     pagecolor="#ffffff"
     bordercolor="#666666"
     borderopacity="1"
     objecttolerance="10"
     gridtolerance="10"
     guidetolerance="10"
     inkscape:pageopacity="0"
     inkscape:pageshadow="2"
     inkscape:window-width="2558"
     inkscape:window-height="1422"
     id="namedview3108"
     showgrid="false"
     fit-margin-top="0"
     fit-margin-left="0"
     fit-margin-right="0"
     fit-margin-bottom="0"
     inkscape:zoom="3.5380117"
     inkscape:cx="165.50464"
     inkscape:cy="-21.371451"
     inkscape:window-x="0"
     inkscape:window-y="16"
     inkscape:window-maximized="0"
     inkscape:current-layer="svg3106" />
  <path
     style="fill:#000000"
     d="m 35.62917,81.572503 c -1.222378,-0.85619 -2.222506,-2.18867 -2.222506,-2.96107 0,-1.07556 -2.02905,-1.47201 -8.666316,-1.6933 l -8.666316,-0.28893 -1.664379,-5 c -1.604111,-4.81895 -1.812527,-5.011 -5.755799,-5.30369 -2.2502815,-0.16703 -4.6315696,-0.95453 -5.2917505,-1.75 -1.3400231,-1.61463 0.081466,-2.0094 1.636408,-0.45446 0.64616,0.64616 56.9161755,1.04994 161.4499985,1.15852 88.25198,0.0917 159.20013,0.35221 157.66255,0.57898 -2.23174,0.32914 -3.33266,1.50734 -5.45832,5.84147 l -2.66272,5.42918 -6.89047,0 c -6.36665,0 -7.10351,0.22806 -9.69289,3 -3.40204,3.64189 -5.3262,3.76471 -8.54545,0.54546 l -2.45455,-2.45455 -2.45455,2.45455 c -1.35,1.35 -3.04987,2.45454 -3.77749,2.45454 -2.04142,0 -5.76796,-2.94397 -5.76796,-4.5567 0,-1.22287 -4.21511,-1.4433 -27.59879,-1.4433 l -27.59879,0 -2.80242,3 c -3.40204,3.64189 -5.3262,3.76471 -8.54545,0.54546 l -2.45455,-2.45455 -2.45455,2.45455 c -3.21925,3.21925 -5.14341,3.09643 -8.54545,-0.54546 l -2.80242,-3 -26.69758,0 -26.69758,0 -2.80242,3 c -3.40204,3.64189 -5.3262,3.76471 -8.54545,0.54546 l -2.45455,-2.45455 -2.45455,2.45455 c -3.21925,3.21925 -5.14341,3.09643 -8.54545,-0.54546 l -2.80242,-3 -26.697576,0 -26.69758,0 -2.80242,3 c -3.402036,3.64189 -5.326199,3.76471 -8.545455,0.54546 l -2.454545,-2.45455 -2.454545,2.45455 c -2.860221,2.86022 -4.273816,3.03353 -7.322949,0.89784 z M 2.4856115,60.545873 c 0.047984,-1.16494 0.2849403,-1.4019 0.6041666,-0.60417 0.2888706,0.72188 0.2533443,1.58438 -0.078947,1.91667 -0.3322917,0.33229 -0.5686404,-0.25834 -0.5252193,-1.3125 z M 329.06616,57.129203 c 0.30546,-3.025 0.94604,-7.3 1.4235,-9.5 0.47746,-2.2 0.81168,-6.025 0.74272,-8.5 -0.0938,-3.36516 -0.23601,-3.74344 -0.56404,-1.5 -0.67496,4.61614 -2.10757,5.71365 -6.95494,5.32812 l -4.30674,-0.34253 0,7.67542 c 0,10.7007 -0.0909,10.83899 -7.12688,10.83899 l -5.9129,0 0.26989,-21.17729 0.26989,-21.17729 5.75,-0.33507 c 5.0026,-0.29152 7.3582,0.6236 5,1.94242 -0.4125,0.23069 -0.075,0.19537 0.75,-0.0785 0.825,-0.27387 3.18363,-0.69701 5.24139,-0.94032 2.85974,-0.33812 3.89404,-0.0446 4.38917,1.24569 0.51735,1.34819 0.82361,1.41951 1.52114,0.35422 0.57425,-0.87702 0.81572,-0.13512 0.70505,2.16615 -0.0926,1.925 0.40288,6.17993 1.10101,9.45541 0.78811,3.69764 0.99915,8.05742 0.55667,11.5 -0.39195,3.04952 -0.93731,7.25208 -1.2119,9.33902 -0.88048,6.69171 -2.25838,9.79934 -1.64303,3.70557 z m -11.6595,-6.75 0,-8.75 -5,0 -5,0 0,8.75 0,8.75 5,0 5,0 0,-8.75 z m -1,-19.25 0,-9 -3.5,0 -3.5,0 0,9 0,9 3.5,0 3.5,0 0,-9 z m 10.18219,1 c -0.22748,-5.36824 -0.76677,-7.84619 -1.89733,-8.71797 -2.63183,-2.02942 -3.28486,-0.5165 -3.28486,7.61032 0,8.41742 0.35989,9.34344 3.45885,8.89983 1.88081,-0.26923 2.01618,-0.88133 1.72334,-7.79218 z M 15.073331,60.462533 c -0.366667,-0.36666 -0.666667,-4.5513 -0.666667,-9.29919 l 0,-8.63254 -3.38615,0.39532 c -1.862382,0.21742 -4.3373815,-0.11377 -5.4999995,-0.73599 -1.8192493,-0.97363 -2.1026346,-1.99744 -2.0333735,-7.34611 0.044262,-3.41815 0.6067624,-8.23982 1.2500005,-10.71482 l 1.169523,-4.5 4.7516185,0 c 2.613391,0 4.750891,-0.2988 4.75,-0.66401 -8.9e-4,-0.3652 2.585881,-0.5902 5.748381,-0.5 l 5.75,0.16401 0.269888,21.25 0.269887,21.25 -5.853221,0 c -3.219271,0 -6.153221,-0.3 -6.519887,-0.66667 z m 11.31802,-11.08333 c -0.0092,-5.88258 -0.358675,-9.20801 -0.880949,-8.38361 -0.578058,0.91245 -2.234053,1.23589 -4.984687,0.97357 l -4.119051,-0.39281 0,8.77643 0,8.77642 5,0 5,0 -0.01531,-9.75 z m -14.18983,-17.65514 c 0.306776,-8.22468 -0.617246,-10.81708 -3.116323,-8.74303 -1.4433305,1.19786 -2.9325205,13.32272 -1.9505945,15.88158 0.289639,0.75478 1.4818405,1.23604 2.6493385,1.06946 1.92941,-0.27529 2.149574,-1.02277 2.417579,-8.20801 z m 12.381669,-0.14944 c 0.339763,-8.98537 -0.18714,-10.44542 -3.769537,-10.44542 -2.898999,0 -3.406989,1.65232 -3.406989,11.08179 l 0,7.91821 3.426526,0 3.426527,0 0.323473,-8.55458 z m 16.053496,8.33552 0.269978,-21.28094 11.311415,-0.0695 c 9.378114,-0.0576 11.457304,0.20309 12.164986,1.52541 0.469464,0.8772 0.71088,10.35848 0.536479,21.0695 l -0.317092,19.47459 -12.117872,0.28094 -12.117871,0.28094 0.269977,-21.28094 z m 9.769978,10.71906 0,-8.5 -3.916667,0 c -2.19766,0 -4.138039,-0.54862 -4.421052,-1.25 -0.277413,-0.6875 -0.539913,3.1375 -0.583334,8.5 l -0.07895,9.75 4.5,0 4.5,0 0,-8.5 z m 13,-0.25 0,-8.75 -4.991381,0 -4.991381,0 0.150505,8.75 0.150506,8.75 4.840875,0 4.840876,0 0,-8.75 z m -13,-19.25 0,-9 -3.5,0 -3.5,0 0,9 0,9 3.5,0 3.5,0 0,-9 z m 11.788933,0.25 -0.288933,-8.75 -3.5,0 -3.5,0 -0.288933,8.75 -0.288933,8.75 4.077866,0 4.077866,0 -0.288933,-8.75 z m -19.288933,-10.25 c 0.339919,-0.55 0.141476,-1 -0.440983,-1 -0.582459,0 -1.059017,0.45 -1.059017,1 0,0.55 0.198442,1 0.440983,1 0.242541,0 0.719098,-0.45 1.059017,-1 z m 73.499996,19.03078 c 0,-19.31476 0.14279,-21.04104 1.75,-21.15649 9.96135,-0.71558 21.42255,-0.3713 22.28631,0.66946 0.6222,0.74971 0.90305,8.80377 0.73524,21.08468 l -0.27155,19.87157 -12.25,0.28078 -12.25,0.28078 0,-21.03078 z m 10.81841,10.46922 0.0213,-8.5 -3.33808,0 c -1.83595,0 -3.93739,-0.23016 -4.66987,-0.51146 -1.03446,-0.39728 -1.28513,0.88643 -1.12278,5.75 0.11495,3.4438 0.22745,7.49896 0.25,9.01146 0.0384,2.57698 0.31773,2.75 4.43953,2.75 l 4.39854,0 0.0213,-8.5 z m 12.18159,-0.2572 0,-8.75721 -4.5,0.3579 -4.5,0.3579 0,8.39931 0,8.3993 4.5,0 4.5,0 0,-8.7572 z m -13,-19.2428 0,-9 -3.5,0 -3.5,0 0,9 0,9 3.5,0 3.5,0 0,-9 z m 12,0 0,-9 -3.5,0 -3.5,0 -0.12169,5.25 c -0.14151,6.10521 -0.13522,10.93334 0.0156,12 0.0583,0.4125 1.68106,0.75 3.60606,0.75 l 3.5,0 0,-9 z m 54.66667,29.33333 c -0.92452,-0.92451 -0.84334,-41.30533 0.0833,-41.4522 4.11982,-0.65297 21.1497,-0.45557 22.5,0.26081 1.57941,0.83793 1.75,2.9233 1.75,21.39325 l 3e-5,20.46481 -11.83333,0 c -6.50834,0 -12.13334,-0.3 -12.5,-0.66667 z m 10.33333,-9.73263 0,-8.39931 -4.5,-0.3579 -4.5,-0.3579 0,8.75721 0,8.7572 4.5,0 4.5,0 0,-8.3993 z m 12.11468,7.6493 c 0.0631,-0.4125 0.1846,-4.35069 0.27006,-8.75153 l 0.15539,-8.00153 -4.76697,10e-4 -4.76697,0.001 -0.003,8.75 -0.003,8.75006 4.5,0 c 2.475,0 4.5516,-0.3375 4.61468,-0.75 z m -12.58033,-20.53085 c 0.31486,-1.25447 0.43593,-5.19197 0.26906,-8.75 l -0.30341,-6.46915 -3.75,-0.31036 -3.75,-0.31037 0,9.06037 0,9.06036 3.48095,0 c 2.78983,0 3.5946,-0.45284 4.0534,-2.28085 z m 11.46565,-6.71915 0,-9 -3.5,0 -3.5,0 0,9 0,9 3.5,0 3.5,0 0,-9 z m 54.92921,29.25 c -0.40707,-4.31274 -0.003,-40.50984 0.45769,-40.97023 0.76477,-0.76477 15.97465,-1.13241 20.3631,-0.49221 l 3.25,0.47413 0,20.86915 0,20.86916 -12,0 c -6.6,0 -12.03186,-0.3375 -12.07079,-0.75 z m 11.07079,-9.65349 0,-8.40348 -5.00062,-0.34652 -5.00062,-0.34651 6.2e-4,8.75 6.2e-4,8.75 5,0 5,0 0,-8.40349 z m 12.00062,-0.34651 6.2e-4,-8.75 -4.75062,0.32725 -4.75062,0.32724 0.32347,8.42276 0.32348,8.42275 4.42652,0 4.42653,0 6.2e-4,-8.75 z m -13.21169,-19 -0.28893,-8.75 -3.5,0 -3.5,0 -0.30341,6.46915 c -0.44898,9.57308 0.1274,11.03085 4.36139,11.03085 l 3.51989,0 -0.28894,-8.75 z m 11.21107,-0.25 0,-9 -3.5,0 -3.5,0 0,9 0,9 3.5,0 3.5,0 0,-9 z m -288.9999959,26 c 0,-0.55 0.4765576,-1 1.059017,-1 0.5824593,0 0.7809017,0.45 0.440983,1 -0.3399187,0.55 -0.8164763,1 -1.059017,1 -0.2425406,0 -0.440983,-0.45 -0.440983,-1 z m -0.81503793,-8.73273 c -0.8695046,-5.28277 -0.7974844,-9.619 0.328313,-19.76727 0.79318513,-7.15 1.71293793,-14.2375 2.04389513,-15.75 l 0.6017403,-2.75 26.0872114,0 c 14.347966,0 25.832979,-0.2542296 25.52225,-0.5649596 -0.310729,-0.31073 -3.363242,-1.21776 -6.783362,-2.01562 C 39.259022,5.4181235 38.172135,4.5576635 42.95869,3.2474535 52.721142,0.57520354 58.507936,-0.51594646 58.968165,0.22871354 59.450808,1.0096435 55.480291,2.3475735 48.352184,3.8059235 c -3.396833,0.69496 -3.339541,0.74051 4.05448,3.22302 l 7.5,2.5180899 94.499996,0.2349 c 99.13217,0.2464096 96.65364,0.3551496 82.15264,-3.6043099 -2.39104,-0.65287 -4.0453,-1.49335 -3.67612,-1.86773 1.20112,-1.21803 18.56907,-4.91593996 19.09464,-4.06554996 0.28085,0.45442 -0.74527,1.11281996 -2.28026,1.46309996 -1.535,0.35028 -4.8159,1.20703 -7.2909,1.90389 l -4.5,1.26701 4.5,1.17433 c 2.475,0.64588 5.85,1.6828699 7.5,2.3044299 1.91372,0.72091 16.57848,1.3561 40.5,1.7542296 21.1375,0.35179 -33.0769,0.71002 -124.25,0.82099 -107.990692,0.13145 -161.7499955,0.53221 -161.7499955,1.20581 0,0.67549 53.7037095,0.92335 162.5000355,0.75 l 162.50004,-0.25893 -0.0997,3.5 c -0.0885,3.10556 -0.17808,3.21826 -0.79507,1 l -0.69535,-2.5 -161.39447,-0.2605 c -88.766951,-0.14328 -161.7116975,0.0817 -162.0994325,0.5 -0.3877349,0.41828 -0.9702881,3.0105 -1.2945626,5.7605 -0.3242746,2.75 -1.0459209,8.56798 -1.6036585,12.92884 -0.71447133,5.58634 -0.68604743,9.81247 0.096209,14.30452 0.6106523,3.50662 0.9020407,6.58391 0.6475299,6.83842 -0.2545108,0.25451 -0.9639757,-2.58252 -1.57658873,-6.30451 z M 76.023914,41.574163 c -0.339487,-0.8847 -0.61725,-5.79163 -0.61725,-10.9043 0,-6.71078 0.386082,-9.61619 1.388373,-10.44802 0.935077,-0.77604 5.750869,-1.06089 14.75,-0.87244 l 13.361623,0.2798 0,11.5 0,11.5 -14.132746,0.27674 c -12.22816,0.23945 -14.215932,0.06 -14.75,-1.33178 z m 25.382746,-6.44496 0,-3 -10.999996,0 -11,0 0,3 0,3 11,0 10.999996,0 0,-3 z m 0,-8 0,-3 -10.999996,0 -11,0 0,3 0,3 11,0 10.999996,0 0,-3 z m 51.43162,14.6824 c -0.27809,-0.72468 -0.37647,-6.01218 -0.21862,-11.75 l 0.287,-10.4324 13.7705,-0.27835 c 16.11337,-0.32571 15.10941,-1.10467 15.1735,11.77291 0.0633,12.71469 0.94611,12.00544 -14.944,12.00544 -10.29886,0 -13.68445,-0.31708 -14.06838,-1.3176 z m 24.56838,-6.6824 0,-3 -10.5,0 -10.5,0 0,3 0,3 10.5,0 10.5,0 0,-3 z m 0,-8 0,-3 -10.5,0 -10.5,0 0,3 0,3 10.5,0 10.5,0 0,-3 z m 51.43162,14.6824 c -0.27809,-0.72468 -0.37647,-6.01218 -0.21862,-11.75 l 0.287,-10.4324 13.92285,-0.27934 c 10.46753,-0.21002 14.12432,0.0382 14.73468,1 0.94208,1.48457 1.13502,18.85338 0.23548,21.19755 -0.51328,1.33759 -2.75665,1.58179 -14.53138,1.58179 -10.59806,0 -14.04518,-0.31476 -14.43001,-1.3176 z m 24.56838,-6.71738 0,-3.03498 -10.25,0.28498 -10.25,0.28498 -0.31642,2.75 -0.31642,2.75 10.56642,0 10.56642,0 0,-3.03498 z m 0,-7.96502 0,-3 -10.5,0 -10.5,0 0,3 0,3 10.5,0 10.5,0 0,-3 z"
     id="path3116"
     inkscape:connector-curvature="0" />
</svg>
